<mxfile host="65bd71144e" scale="2" border="0">
    <diagram id="xNXDlJ9wUZGHlSxagen_" name="Page-1">
        <mxGraphModel dx="1240" dy="5410" grid="1" gridSize="10" guides="1" tooltips="1" connect="1" arrows="1" fold="1" page="1" pageScale="1" pageWidth="3300" pageHeight="4681" background="#FFFFFF" math="0" shadow="0">
            <root>
                <mxCell id="0"/>
                <mxCell id="1" parent="0"/>
                <mxCell id="6" value="" style="rounded=0;whiteSpace=wrap;html=1;fontSize=15;dashed=1;fillColor=#A8DADC;strokeColor=#457B9D;fontColor=#1D3557;" vertex="1" parent="1">
                    <mxGeometry x="290" y="400" width="360" height="80" as="geometry"/>
                </mxCell>
                <mxCell id="3" value="&lt;font style=&quot;font-size: 15px&quot;&gt;**数据库(MariaDB/SQLite)&lt;/font&gt;" style="rounded=0;whiteSpace=wrap;html=1;fillColor=#A8DADC;strokeColor=#457B9D;fontColor=#1D3557;" vertex="1" parent="1">
                    <mxGeometry x="390" y="410" width="130" height="60" as="geometry"/>
                </mxCell>
                <mxCell id="4" value="Excel外部文件(*.xls)" style="rounded=0;whiteSpace=wrap;html=1;fontSize=15;fillColor=#A8DADC;strokeColor=#457B9D;fontColor=#1D3557;" vertex="1" parent="1">
                    <mxGeometry x="530" y="410" width="110" height="60" as="geometry"/>
                </mxCell>
                <mxCell id="7" value="数据层" style="text;html=1;strokeColor=none;fillColor=none;align=center;verticalAlign=middle;whiteSpace=wrap;rounded=0;dashed=1;fontSize=15;fontColor=#1D3557;" vertex="1" parent="1">
                    <mxGeometry x="300" y="430" width="80" height="20" as="geometry"/>
                </mxCell>
                <mxCell id="35" value="" style="rounded=0;whiteSpace=wrap;html=1;sketch=0;strokeColor=#006EAF;fillColor=#1ba1e2;fontSize=15;dashed=1;fontColor=#ffffff;" vertex="1" parent="1">
                    <mxGeometry x="290" y="300" width="360" height="80" as="geometry"/>
                </mxCell>
                <mxCell id="71" value="" style="edgeStyle=orthogonalEdgeStyle;curved=0;rounded=1;sketch=0;orthogonalLoop=1;jettySize=auto;html=1;strokeColor=#457B9D;fillColor=#A8DADC;fontSize=15;fontColor=#1D3557;" edge="1" parent="1" source="36" target="37">
                    <mxGeometry relative="1" as="geometry"/>
                </mxCell>
                <mxCell id="36" value="**PyMySQL(SQLite3)" style="rounded=0;whiteSpace=wrap;html=1;sketch=0;fontSize=15;fillColor=#1ba1e2;strokeColor=#006EAF;fontColor=#ffffff;" vertex="1" parent="1">
                    <mxGeometry x="390" y="310" width="150" height="60" as="geometry"/>
                </mxCell>
                <mxCell id="37" value="xlrd" style="rounded=0;whiteSpace=wrap;html=1;sketch=0;fontSize=15;fillColor=#1ba1e2;strokeColor=#006EAF;fontColor=#ffffff;" vertex="1" parent="1">
                    <mxGeometry x="550" y="310" width="90" height="60" as="geometry"/>
                </mxCell>
                <mxCell id="38" value="&lt;span style=&quot;font-size: 15px&quot;&gt;数据操作库&lt;/span&gt;" style="text;html=1;strokeColor=#006EAF;fillColor=#1ba1e2;align=center;verticalAlign=middle;whiteSpace=wrap;rounded=0;sketch=0;fontColor=#ffffff;" vertex="1" parent="1">
                    <mxGeometry x="297.5" y="330" width="85" height="20" as="geometry"/>
                </mxCell>
                <mxCell id="40" value="" style="endArrow=classic;html=1;strokeColor=#457B9D;fillColor=#A8DADC;fontColor=#1D3557;exitX=0.5;exitY=0;exitDx=0;exitDy=0;entryX=0.5;entryY=1;entryDx=0;entryDy=0;strokeWidth=3;" edge="1" parent="1" source="3" target="36">
                    <mxGeometry width="50" height="50" relative="1" as="geometry">
                        <mxPoint x="700" y="360" as="sourcePoint"/>
                        <mxPoint x="750" y="310" as="targetPoint"/>
                        <Array as="points">
                            <mxPoint x="455" y="390"/>
                        </Array>
                    </mxGeometry>
                </mxCell>
                <mxCell id="41" value="" style="endArrow=classic;html=1;strokeColor=#457B9D;fillColor=#A8DADC;fontColor=#1D3557;exitX=0.5;exitY=0;exitDx=0;exitDy=0;entryX=0.5;entryY=1;entryDx=0;entryDy=0;strokeWidth=3;" edge="1" parent="1" source="4" target="37">
                    <mxGeometry width="50" height="50" relative="1" as="geometry">
                        <mxPoint x="700" y="360" as="sourcePoint"/>
                        <mxPoint x="750" y="310" as="targetPoint"/>
                        <Array as="points">
                            <mxPoint x="595" y="390"/>
                        </Array>
                    </mxGeometry>
                </mxCell>
                <mxCell id="47" value="&lt;font style=&quot;font-size: 16px;&quot;&gt;**当软件编译为云端版本时使用PyMySQL库操作MariaDB数据库，否则使用SQLite3库操作SQLite3数据库&lt;/font&gt;" style="text;html=1;strokeColor=none;fillColor=none;align=center;verticalAlign=middle;whiteSpace=wrap;rounded=0;sketch=0;fontColor=#1D3557;fontSize=16;" vertex="1" parent="1">
                    <mxGeometry x="701" y="395" width="270" height="80" as="geometry"/>
                </mxCell>
                <mxCell id="48" value="" style="rounded=0;whiteSpace=wrap;html=1;sketch=0;strokeColor=#3700CC;fillColor=#6a00ff;fontColor=#ffffff;dashed=1;" vertex="1" parent="1">
                    <mxGeometry x="160" y="-10" width="110" height="490" as="geometry"/>
                </mxCell>
                <mxCell id="49" value="外部资源" style="text;html=1;strokeColor=#3700CC;fillColor=#6a00ff;align=center;verticalAlign=middle;whiteSpace=wrap;rounded=0;sketch=0;fontColor=#ffffff;fontSize=15;" vertex="1" parent="1">
                    <mxGeometry x="175" y="10" width="80" height="20" as="geometry"/>
                </mxCell>
                <mxCell id="50" value="图片" style="rounded=0;whiteSpace=wrap;html=1;sketch=0;strokeColor=#3700CC;fillColor=#6a00ff;fontSize=15;fontColor=#ffffff;" vertex="1" parent="1">
                    <mxGeometry x="170" y="60" width="90" height="60" as="geometry"/>
                </mxCell>
                <mxCell id="51" value="字体库" style="rounded=0;whiteSpace=wrap;html=1;sketch=0;strokeColor=#3700CC;fillColor=#6a00ff;fontSize=15;fontColor=#ffffff;" vertex="1" parent="1">
                    <mxGeometry x="170" y="140" width="90" height="60" as="geometry"/>
                </mxCell>
                <mxCell id="52" value="文档" style="rounded=0;whiteSpace=wrap;html=1;sketch=0;strokeColor=#3700CC;fillColor=#6a00ff;fontSize=15;fontColor=#ffffff;" vertex="1" parent="1">
                    <mxGeometry x="170" y="220" width="90" height="60" as="geometry"/>
                </mxCell>
                <mxCell id="53" value="Excel模板" style="rounded=0;whiteSpace=wrap;html=1;sketch=0;strokeColor=#3700CC;fillColor=#6a00ff;fontSize=15;fontColor=#ffffff;" vertex="1" parent="1">
                    <mxGeometry x="170" y="300" width="90" height="60" as="geometry"/>
                </mxCell>
                <mxCell id="55" value="&lt;b&gt;&lt;font style=&quot;font-size: 22px&quot;&gt;. . .&lt;/font&gt;&lt;/b&gt;" style="text;html=1;fillColor=#6a00ff;align=center;verticalAlign=middle;whiteSpace=wrap;rounded=0;sketch=0;fontSize=15;fontColor=#ffffff;" vertex="1" parent="1">
                    <mxGeometry x="190" y="380" width="50" height="20" as="geometry"/>
                </mxCell>
                <mxCell id="66" value="*数据可视化组件由用户界面中的教师系统中的成绩分析模块使用；模拟操作组件由学生系统中的安全操作模拟模块使用。" style="text;html=1;strokeColor=none;fillColor=none;align=center;verticalAlign=middle;whiteSpace=wrap;rounded=0;dashed=1;sketch=0;fontSize=16;fontColor=#1D3557;" vertex="1" parent="1">
                    <mxGeometry x="691" y="305" width="280" height="80" as="geometry"/>
                </mxCell>
                <mxCell id="67" value="" style="group" vertex="1" connectable="0" parent="1">
                    <mxGeometry x="290" y="-10" width="560" height="80" as="geometry"/>
                </mxCell>
                <mxCell id="18" value="" style="rounded=0;whiteSpace=wrap;html=1;fontSize=15;dashed=1;align=left;labelPosition=center;verticalLabelPosition=middle;verticalAlign=middle;fillColor=#A8DADC;strokeColor=#457B9D;fontColor=#1D3557;" vertex="1" parent="67">
                    <mxGeometry width="430" height="80" as="geometry"/>
                </mxCell>
                <mxCell id="19" value="用户界面层" style="text;html=1;strokeColor=none;fillColor=none;align=center;verticalAlign=middle;whiteSpace=wrap;rounded=0;dashed=1;fontSize=15;fontColor=#1D3557;" vertex="1" parent="67">
                    <mxGeometry x="5" y="25" width="95" height="30" as="geometry"/>
                </mxCell>
                <mxCell id="24" value="&lt;font style=&quot;font-size: 15px&quot;&gt;登录界面Login.py&lt;/font&gt;" style="rounded=0;whiteSpace=wrap;html=1;sketch=0;strokeColor=#457B9D;fillColor=#A8DADC;fontColor=#1D3557;" vertex="1" parent="67">
                    <mxGeometry x="110" y="10" width="110" height="60" as="geometry"/>
                </mxCell>
                <mxCell id="25" value="&lt;font style=&quot;font-size: 15px&quot;&gt;导航界面Navigator.py&lt;/font&gt;" style="rounded=0;whiteSpace=wrap;html=1;sketch=0;strokeColor=#457B9D;fillColor=#A8DADC;fontColor=#1D3557;" vertex="1" parent="67">
                    <mxGeometry x="230" y="10" width="100" height="60" as="geometry"/>
                </mxCell>
                <mxCell id="29" value="&lt;b&gt;&lt;font style=&quot;font-size: 22px&quot;&gt;. . .&lt;/font&gt;&lt;/b&gt;" style="text;html=1;strokeColor=none;fillColor=none;align=center;verticalAlign=middle;whiteSpace=wrap;rounded=0;sketch=0;fontSize=15;fontColor=#1D3557;" vertex="1" parent="67">
                    <mxGeometry x="340" y="25" width="80" height="20" as="geometry"/>
                </mxCell>
                <mxCell id="77" value="" style="group" vertex="1" connectable="0" parent="1">
                    <mxGeometry x="290" y="90" width="730" height="190" as="geometry"/>
                </mxCell>
                <mxCell id="73" value="" style="rounded=0;whiteSpace=wrap;html=1;dashed=1;sketch=0;strokeColor=#457B9D;fillColor=#A8DADC;fontSize=15;fontColor=#1D3557;" vertex="1" parent="77">
                    <mxGeometry width="730" height="190" as="geometry"/>
                </mxCell>
                <mxCell id="76" value="组件层" style="text;html=1;strokeColor=none;fillColor=none;align=center;verticalAlign=middle;whiteSpace=wrap;rounded=0;dashed=1;sketch=0;fontSize=15;fontColor=#1D3557;" vertex="1" parent="77">
                    <mxGeometry x="610" y="40" width="70" height="20" as="geometry"/>
                </mxCell>
                <mxCell id="15" value="" style="rounded=0;whiteSpace=wrap;html=1;fontSize=15;dashed=1;fillColor=#A8DADC;strokeColor=#457B9D;fontColor=#1D3557;" vertex="1" parent="77">
                    <mxGeometry x="10" y="100" width="710" height="80" as="geometry"/>
                </mxCell>
                <mxCell id="8" value="数据库接入模块DataManager.py" style="rounded=0;whiteSpace=wrap;html=1;fontSize=15;fillColor=#A8DADC;strokeColor=#457B9D;fontColor=#1D3557;" vertex="1" parent="77">
                    <mxGeometry x="110" y="110" width="120" height="60" as="geometry"/>
                </mxCell>
                <mxCell id="9" value="外部Excel文件接入模块ExcelManager.py" style="rounded=0;whiteSpace=wrap;html=1;fontSize=15;fillColor=#A8DADC;strokeColor=#457B9D;fontColor=#1D3557;" vertex="1" parent="77">
                    <mxGeometry x="240" y="110" width="160" height="60" as="geometry"/>
                </mxCell>
                <mxCell id="12" value="样式管理模块&lt;br&gt;StylesManager.py" style="rounded=0;whiteSpace=wrap;html=1;fontSize=15;fillColor=#A8DADC;strokeColor=#457B9D;fontColor=#1D3557;" vertex="1" parent="77">
                    <mxGeometry x="570" y="110" width="140" height="60" as="geometry"/>
                </mxCell>
                <mxCell id="14" value="窗口管理模块&lt;br&gt;WindowsManager.py" style="rounded=0;whiteSpace=wrap;html=1;fontSize=15;fillColor=#A8DADC;strokeColor=#457B9D;fontColor=#1D3557;" vertex="1" parent="77">
                    <mxGeometry x="411" y="110" width="149" height="60" as="geometry"/>
                </mxCell>
                <mxCell id="16" value="系统公用组件" style="text;html=1;strokeColor=none;fillColor=none;align=center;verticalAlign=middle;whiteSpace=wrap;rounded=0;dashed=1;fontSize=15;fontColor=#1D3557;" vertex="1" parent="77">
                    <mxGeometry x="25" y="130" width="70" height="20" as="geometry"/>
                </mxCell>
                <mxCell id="70" value="" style="group" vertex="1" connectable="0" parent="77">
                    <mxGeometry x="10" y="10" width="550" height="80" as="geometry"/>
                </mxCell>
                <mxCell id="58" value="" style="rounded=0;whiteSpace=wrap;html=1;dashed=1;sketch=0;strokeColor=#457B9D;fillColor=#A8DADC;fontSize=15;fontColor=#1D3557;" vertex="1" parent="70">
                    <mxGeometry width="550" height="80" as="geometry"/>
                </mxCell>
                <mxCell id="59" value="*独立组件" style="text;html=1;strokeColor=none;fillColor=none;align=center;verticalAlign=middle;whiteSpace=wrap;rounded=0;dashed=1;sketch=0;fontSize=15;fontColor=#1D3557;" vertex="1" parent="70">
                    <mxGeometry x="13.75" y="30" width="72.5" height="20" as="geometry"/>
                </mxCell>
                <mxCell id="60" value="&lt;span style=&quot;font-size: 15px&quot;&gt;数据可视化组件&lt;/span&gt;" style="rounded=0;whiteSpace=wrap;html=1;sketch=0;strokeColor=#457B9D;fillColor=#A8DADC;fontColor=#1D3557;" vertex="1" parent="70">
                    <mxGeometry x="100" y="10" width="220" height="60" as="geometry"/>
                </mxCell>
                <mxCell id="61" value="&lt;span style=&quot;font-size: 15px&quot;&gt;模拟操作组件&lt;/span&gt;" style="rounded=0;whiteSpace=wrap;html=1;sketch=0;strokeColor=#457B9D;fillColor=#A8DADC;fontColor=#1D3557;" vertex="1" parent="70">
                    <mxGeometry x="330" y="10" width="210" height="60" as="geometry"/>
                </mxCell>
                <mxCell id="30" value="" style="rounded=0;whiteSpace=wrap;html=1;sketch=0;fontSize=15;dashed=1;fillColor=#60a917;strokeColor=#2D7600;fontColor=#ffffff;" vertex="1" parent="1">
                    <mxGeometry x="740" y="-10" width="280" height="80" as="geometry"/>
                </mxCell>
                <mxCell id="32" value="图形界面框架" style="text;html=1;fillColor=#60a917;align=center;verticalAlign=middle;whiteSpace=wrap;rounded=0;dashed=1;sketch=0;fontSize=15;fontColor=#ffffff;" vertex="1" parent="1">
                    <mxGeometry x="750" y="20" width="95" height="20" as="geometry"/>
                </mxCell>
                <mxCell id="31" value="Qt&lt;br&gt;(PySide2)" style="rounded=0;whiteSpace=wrap;html=1;sketch=0;fillColor=#60a917;fontSize=15;strokeColor=#2D7600;fontColor=#ffffff;" vertex="1" parent="1">
                    <mxGeometry x="860" width="150" height="60" as="geometry"/>
                </mxCell>
                <mxCell id="80" value="" style="endArrow=classic;html=1;strokeColor=#457B9D;fillColor=#A8DADC;fontSize=15;fontColor=#1D3557;exitX=0.5;exitY=0;exitDx=0;exitDy=0;entryX=0.5;entryY=1;entryDx=0;entryDy=0;strokeWidth=3;" edge="1" parent="1" source="36" target="8">
                    <mxGeometry width="50" height="50" relative="1" as="geometry">
                        <mxPoint x="630" y="300" as="sourcePoint"/>
                        <mxPoint x="680" y="250" as="targetPoint"/>
                        <Array as="points">
                            <mxPoint x="460" y="290"/>
                        </Array>
                    </mxGeometry>
                </mxCell>
                <mxCell id="81" value="" style="endArrow=classic;html=1;strokeColor=#457B9D;fillColor=#A8DADC;fontSize=15;fontColor=#1D3557;exitX=0.5;exitY=0;exitDx=0;exitDy=0;entryX=0.5;entryY=1;entryDx=0;entryDy=0;strokeWidth=3;" edge="1" parent="1" source="37" target="9">
                    <mxGeometry width="50" height="50" relative="1" as="geometry">
                        <mxPoint x="630" y="300" as="sourcePoint"/>
                        <mxPoint x="680" y="250" as="targetPoint"/>
                        <Array as="points">
                            <mxPoint x="610" y="290"/>
                        </Array>
                    </mxGeometry>
                </mxCell>
                <mxCell id="82" value="" style="endArrow=classic;html=1;strokeColor=#457B9D;strokeWidth=3;fillColor=#A8DADC;fontSize=15;fontColor=#1D3557;entryX=1;entryY=0.5;entryDx=0;entryDy=0;exitX=0;exitY=0.5;exitDx=0;exitDy=0;" edge="1" parent="1" source="30" target="18">
                    <mxGeometry width="50" height="50" relative="1" as="geometry">
                        <mxPoint x="630" y="300" as="sourcePoint"/>
                        <mxPoint x="680" y="250" as="targetPoint"/>
                    </mxGeometry>
                </mxCell>
                <mxCell id="84" value="" style="endArrow=classic;html=1;strokeColor=#457B9D;strokeWidth=3;fillColor=#A8DADC;fontSize=15;fontColor=#1D3557;entryX=1;entryY=0.5;entryDx=0;entryDy=0;exitX=0.5;exitY=1;exitDx=0;exitDy=0;" edge="1" parent="1" source="30" target="58">
                    <mxGeometry width="50" height="50" relative="1" as="geometry">
                        <mxPoint x="630" y="300" as="sourcePoint"/>
                        <mxPoint x="680" y="250" as="targetPoint"/>
                        <Array as="points">
                            <mxPoint x="880" y="130"/>
                        </Array>
                    </mxGeometry>
                </mxCell>
                <mxCell id="85" value="" style="endArrow=classic;html=1;strokeColor=#457B9D;strokeWidth=3;fillColor=#A8DADC;fontSize=15;fontColor=#1D3557;entryX=0.5;entryY=1;entryDx=0;entryDy=0;" edge="1" parent="1" target="18">
                    <mxGeometry width="50" height="50" relative="1" as="geometry">
                        <mxPoint x="570" y="90" as="sourcePoint"/>
                        <mxPoint x="680" y="250" as="targetPoint"/>
                        <Array as="points">
                            <mxPoint x="570" y="90"/>
                        </Array>
                    </mxGeometry>
                </mxCell>
                <mxCell id="87" value="" style="endArrow=classic;html=1;strokeColor=#457B9D;strokeWidth=3;fillColor=#A8DADC;fontSize=15;fontColor=#1D3557;exitX=0.989;exitY=0.083;exitDx=0;exitDy=0;exitPerimeter=0;entryX=0;entryY=0.5;entryDx=0;entryDy=0;" edge="1" parent="1" source="48" target="18">
                    <mxGeometry width="50" height="50" relative="1" as="geometry">
                        <mxPoint x="630" y="300" as="sourcePoint"/>
                        <mxPoint x="680" y="250" as="targetPoint"/>
                    </mxGeometry>
                </mxCell>
                <mxCell id="89" value="" style="endArrow=classic;html=1;strokeColor=#457B9D;strokeWidth=3;fillColor=#A8DADC;fontSize=15;fontColor=#1D3557;exitX=1.011;exitY=0.399;exitDx=0;exitDy=0;exitPerimeter=0;" edge="1" parent="1" source="48">
                    <mxGeometry width="50" height="50" relative="1" as="geometry">
                        <mxPoint x="630" y="300" as="sourcePoint"/>
                        <mxPoint x="290" y="186" as="targetPoint"/>
                    </mxGeometry>
                </mxCell>
            </root>
        </mxGraphModel>
    </diagram>
</mxfile>